<?xml version="1.0" encoding="utf-8"?>
<!-- Generator: Adobe Illustrator 20.1.0, SVG Export Plug-In . SVG Version: 6.00 Build 0)  -->
<svg version="1.1" id="Layer_1" xmlns="http://www.w3.org/2000/svg" xmlns:xlink="http://www.w3.org/1999/xlink" x="0px" y="0px"
	 viewBox="0 0 16 16" style="enable-background:new 0 0 16 16;" xml:space="preserve">
<style type="text/css">
	.st0{fill:#213462;}
	.st1{fill:#E0E1E5;}
	.st2{fill:#BDBFC3;}
	.st3{fill:none;stroke:#213462;stroke-width:5.999682e-02;stroke-miterlimit:10;}
</style>
<g>
	<path class="st0" d="M8,0H1.7v12.8c0,0,0,1.7,1.7,1.7c1.6,0,3.6,0.3,4,0.5c0.4,0.3,0.6,0.7,0.6,0.9V16c0,0,0,0,0-0.1
		C8,16,8,16,8,16v-0.1c0.1-0.2,0.3-0.6,0.6-0.9c0.4-0.3,2.4-0.5,4-0.5c1.7,0,1.7-1.7,1.7-1.7V0H8z"/>
	<path class="st1" d="M8,0.4H2.2v12.1c0,0,0,1.6,1.6,1.6c1.5,0,3.3,0.2,3.7,0.5c0.3,0.3,0.5,0.7,0.6,0.8v0.1c0,0,0,0,0,0
		c0,0,0,0,0,0v-0.1c0.1-0.2,0.2-0.6,0.6-0.8c0.3-0.3,2.2-0.5,3.7-0.5c1.6,0,1.6-1.6,1.6-1.6V0.4H8z"/>
	<rect x="2" y="1.1" class="st0" width="12.1" height="3.2"/>
	<rect x="2" y="0.2" class="st0" width="12.1" height="0.4"/>
	<path class="st0" d="M4.6,6.3C4.7,6.2,4.8,6,4.8,5.9c0-0.3-0.2-0.5-0.5-0.5c0,0,0,0,0,0c0-0.1,0-0.1,0-0.2c0-0.3-0.2-0.5-0.5-0.5
		C3.6,4.8,3.4,5,3.4,5.3c0,0.1,0,0.2,0.1,0.2c0,0-0.1,0-0.1,0c-0.3,0-0.5,0.2-0.5,0.5c0,0.2,0.1,0.3,0.2,0.4C3,6.4,2.9,6.5,2.9,6.7
		c0,0.3,0.2,0.5,0.5,0.5c0.1,0,0.1,0,0.2,0c0,0,0.1,0,0.1,0.1v0.7H4V7.2c0.1,0,0.2-0.1,0.2-0.1c0,0,0.1,0,0.1,0
		c0.3,0,0.5-0.2,0.5-0.5C4.8,6.5,4.7,6.3,4.6,6.3"/>
	<path class="st0" d="M12.9,6.3C13,6.2,13.1,6,13.1,5.9c0-0.3-0.2-0.5-0.5-0.5c0,0,0,0,0,0c0-0.1,0-0.1,0-0.2c0-0.3-0.2-0.5-0.5-0.5
		c-0.3,0-0.5,0.2-0.5,0.5c0,0.1,0,0.2,0.1,0.2c0,0-0.1,0-0.1,0c-0.3,0-0.5,0.2-0.5,0.5c0,0.2,0.1,0.3,0.2,0.4
		c-0.1,0.1-0.2,0.2-0.2,0.4c0,0.3,0.2,0.5,0.5,0.5c0.1,0,0.1,0,0.2,0c0,0,0.1,0,0.1,0.1v0.7h0.3V7.2c0.1,0,0.2-0.1,0.2-0.1
		c0,0,0.1,0,0.1,0c0.3,0,0.5-0.2,0.5-0.5C13.1,6.5,13,6.3,12.9,6.3"/>
	<path class="st0" d="M4.6,11.6c0.1-0.1,0.2-0.2,0.2-0.4c0-0.3-0.2-0.5-0.5-0.5c0,0,0,0,0,0c0-0.1,0-0.1,0-0.2
		c0-0.3-0.2-0.5-0.5-0.5c-0.3,0-0.5,0.2-0.5,0.5c0,0.1,0,0.2,0.1,0.2c0,0-0.1,0-0.1,0c-0.3,0-0.5,0.2-0.5,0.5c0,0.2,0.1,0.3,0.2,0.4
		c-0.1,0.1-0.2,0.2-0.2,0.4c0,0.3,0.2,0.5,0.5,0.5c0.1,0,0.1,0,0.2,0c0,0,0.1,0,0.1,0.1v0.7H4v-0.7c0.1,0,0.2-0.1,0.2-0.1
		c0,0,0.1,0,0.1,0c0.3,0,0.5-0.2,0.5-0.5C4.8,11.8,4.7,11.7,4.6,11.6"/>
	<path class="st0" d="M12.9,11.6c0.1-0.1,0.2-0.2,0.2-0.4c0-0.3-0.2-0.5-0.5-0.5c0,0,0,0,0,0c0-0.1,0-0.1,0-0.2
		c0-0.3-0.2-0.5-0.5-0.5c-0.3,0-0.5,0.2-0.5,0.5c0,0.1,0,0.2,0.1,0.2c0,0-0.1,0-0.1,0c-0.3,0-0.5,0.2-0.5,0.5c0,0.2,0.1,0.3,0.2,0.4
		c-0.1,0.1-0.2,0.2-0.2,0.4c0,0.3,0.2,0.5,0.5,0.5c0.1,0,0.1,0,0.2,0c0,0,0.1,0,0.1,0.1v0.7h0.3v-0.7c0.1,0,0.2-0.1,0.2-0.1
		c0,0,0.1,0,0.1,0c0.3,0,0.5-0.2,0.5-0.5C13.1,11.8,13,11.7,12.9,11.6"/>
	<path class="st1" d="M9.3,2.3c0,0-0.3,0.1-0.9,0.1c0-0.5,0.1-0.9,0.1-0.9h-1c0,0,0.1,0.3,0.1,0.9c-0.6,0-0.9-0.1-0.9-0.1v1
		c0,0,0.3-0.1,0.9-0.1C7.6,3.7,7.5,4,7.5,4h1c0,0-0.1-0.4-0.1-1c0.6,0,0.9,0.1,0.9,0.1V2.3z"/>
	<path class="st1" d="M12.9,2.3c0,0-0.3,0.1-0.9,0.1c0-0.5,0.1-0.9,0.1-0.9h-1c0,0,0.1,0.3,0.1,0.9c-0.6,0-0.9-0.1-0.9-0.1v1
		c0,0,0.3-0.1,0.9-0.1c0,0.6-0.1,0.9-0.1,0.9h1c0,0-0.1-0.4-0.1-1c0.6,0,0.9,0.1,0.9,0.1V2.3z"/>
	<path class="st1" d="M5.8,2.3c0,0-0.3,0.1-0.9,0.1C4.9,1.8,5,1.5,5,1.5H4c0,0,0.1,0.3,0.1,0.9c-0.6,0-0.9-0.1-0.9-0.1v1
		c0,0,0.3-0.1,0.9-0.1C4.1,3.7,4,4,4,4h1c0,0-0.1-0.4-0.1-1c0.6,0,0.9,0.1,0.9,0.1V2.3z"/>
	<path class="st2" d="M11,9.1h-0.9c0,0-0.1-0.2-0.5-0.2C9.3,9,9.2,9.1,9.2,9.1l-2.3,0c0,0-0.1-0.2-0.5-0.2C6,9,5.9,9.1,5.9,9.1h-1
		v1.5H11V9.1z"/>
	<path class="st3" d="M11,9.1h-0.9c0,0-0.1-0.2-0.5-0.2C9.3,9,9.2,9.1,9.2,9.1l-2.3,0c0,0-0.1-0.2-0.5-0.2C6,9,5.9,9.1,5.9,9.1h-1
		v1.5H11V9.1z"/>
	<polygon class="st0" points="10.3,6.9 9.9,6.9 9.9,6.5 9.3,6.5 9.3,6.9 6.7,6.9 6.7,6.6 6.1,6.6 6.1,6.9 5.7,6.9 4.4,9.1 11.6,9.1 
			"/>
	<rect x="5.8" y="7.1" class="st2" width="4.3" height="0.1"/>
	<rect x="5.9" y="9.5" class="st0" width="0.9" height="1.1"/>
	<rect x="9.2" y="9.5" class="st0" width="0.9" height="1.1"/>
</g>
</svg>
