<?xml version="1.0" encoding="utf-8"?>
<!-- Generator: Adobe Illustrator 20.1.0, SVG Export Plug-In . SVG Version: 6.00 Build 0)  -->
<svg version="1.1" id="Layer_1" xmlns="http://www.w3.org/2000/svg" xmlns:xlink="http://www.w3.org/1999/xlink" x="0px" y="0px"
	 viewBox="0 0 80 40" style="enable-background:new 0 0 80 40;" xml:space="preserve">
<style type="text/css">
	.st0{fill:#213462;}
	.st1{fill:#E0E1E5;}
	.st2{fill:#BDBFC3;}
</style>
<g>
	<g>
		<path class="st0" d="M39.7,7.4h-6.2v12.5c0,0,0,1.6,1.7,1.6c1.6,0,3.5,0.2,3.9,0.5c0.4,0.3,0.5,0.7,0.6,0.9V23c0,0,0,0,0-0.1
			c0,0,0,0.1,0,0.1v-0.1c0.1-0.2,0.3-0.6,0.6-0.9c0.3-0.3,2.3-0.5,3.9-0.5c1.7,0,1.7-1.6,1.7-1.6V7.4H39.7z"/>
		<path class="st1" d="M39.7,7.8H34v11.8c0,0,0,1.5,1.5,1.5c1.4,0,3.2,0.2,3.6,0.5c0.3,0.3,0.5,0.7,0.6,0.8v0.1c0,0,0,0,0,0
			c0,0,0,0,0,0v-0.1c0.1-0.2,0.2-0.5,0.6-0.8c0.3-0.3,2.1-0.5,3.6-0.5c1.6,0,1.5-1.5,1.5-1.5V7.8H39.7z"/>
		<rect x="33.8" y="8.5" class="st0" width="11.7" height="3.1"/>
		<rect x="33.8" y="7.7" class="st0" width="11.7" height="0.4"/>
		<path class="st0" d="M36.4,13.5c0.1-0.1,0.2-0.2,0.2-0.4c0-0.2-0.2-0.5-0.5-0.5c0,0,0,0,0,0c0-0.1,0-0.1,0-0.2
			c0-0.2-0.2-0.5-0.5-0.5c-0.3,0-0.5,0.2-0.5,0.5c0,0.1,0,0.2,0.1,0.2c0,0-0.1,0-0.1,0c-0.2,0-0.5,0.2-0.5,0.5
			c0,0.2,0.1,0.3,0.2,0.4c-0.1,0.1-0.2,0.2-0.2,0.4c0,0.2,0.2,0.5,0.5,0.5c0.1,0,0.1,0,0.2,0c0,0,0.1,0,0.1,0.1v0.7h0.3v-0.6
			c0.1,0,0.2-0.1,0.2-0.1c0,0,0.1,0,0.1,0c0.2,0,0.5-0.2,0.5-0.5C36.6,13.7,36.5,13.6,36.4,13.5"/>
		<path class="st0" d="M44.4,13.5c0.1-0.1,0.2-0.2,0.2-0.4c0-0.2-0.2-0.5-0.5-0.5c0,0,0,0,0,0c0-0.1,0-0.1,0-0.2
			c0-0.2-0.2-0.5-0.5-0.5c-0.3,0-0.5,0.2-0.5,0.5c0,0.1,0,0.2,0.1,0.2c0,0-0.1,0-0.1,0c-0.2,0-0.5,0.2-0.5,0.5
			c0,0.2,0.1,0.3,0.2,0.4c-0.1,0.1-0.2,0.2-0.2,0.4c0,0.2,0.2,0.5,0.5,0.5c0.1,0,0.1,0,0.2,0c0,0,0.1,0,0.1,0.1v0.7h0.3v-0.6
			c0.1,0,0.2-0.1,0.2-0.1c0,0,0.1,0,0.1,0c0.2,0,0.5-0.2,0.5-0.5C44.7,13.7,44.6,13.6,44.4,13.5"/>
		<path class="st0" d="M36.4,18.7c0.1-0.1,0.2-0.2,0.2-0.4c0-0.2-0.2-0.5-0.5-0.5c0,0,0,0,0,0c0-0.1,0-0.1,0-0.2
			c0-0.2-0.2-0.5-0.5-0.5c-0.3,0-0.5,0.2-0.5,0.5c0,0.1,0,0.2,0.1,0.2c0,0-0.1,0-0.1,0c-0.2,0-0.5,0.2-0.5,0.5
			c0,0.2,0.1,0.3,0.2,0.4c-0.1,0.1-0.2,0.2-0.2,0.4c0,0.2,0.2,0.5,0.5,0.5c0.1,0,0.1,0,0.2,0c0,0,0.1,0,0.1,0.1v0.7h0.3v-0.6
			c0.1,0,0.2-0.1,0.2-0.1c0,0,0.1,0,0.1,0c0.2,0,0.5-0.2,0.5-0.5C36.6,19,36.5,18.8,36.4,18.7"/>
		<path class="st0" d="M44.4,18.7c0.1-0.1,0.2-0.2,0.2-0.4c0-0.2-0.2-0.5-0.5-0.5c0,0,0,0,0,0c0-0.1,0-0.1,0-0.2
			c0-0.2-0.2-0.5-0.5-0.5c-0.3,0-0.5,0.2-0.5,0.5c0,0.1,0,0.2,0.1,0.2c0,0-0.1,0-0.1,0c-0.2,0-0.5,0.2-0.5,0.5
			c0,0.2,0.1,0.3,0.2,0.4c-0.1,0.1-0.2,0.2-0.2,0.4c0,0.2,0.2,0.5,0.5,0.5c0.1,0,0.1,0,0.2,0c0,0,0.1,0,0.1,0.1v0.7h0.3v-0.6
			c0.1,0,0.2-0.1,0.2-0.1c0,0,0.1,0,0.1,0c0.2,0,0.5-0.2,0.5-0.5C44.7,19,44.6,18.8,44.4,18.7"/>
		<path class="st1" d="M40.9,9.6c0,0-0.3,0.1-0.9,0.1c0-0.5,0.1-0.8,0.1-0.8h-0.9c0,0,0.1,0.3,0.1,0.8c-0.6,0-0.9-0.1-0.9-0.1v0.9
			c0,0,0.3-0.1,0.9-0.1c0,0.6-0.1,0.9-0.1,0.9h0.9c0,0-0.1-0.3-0.1-0.9c0.6,0,0.9,0.1,0.9,0.1V9.6z"/>
		<path class="st1" d="M44.4,9.6c0,0-0.3,0.1-0.9,0.1c0-0.5,0.1-0.8,0.1-0.8h-0.9c0,0,0.1,0.3,0.1,0.8c-0.6,0-0.9-0.1-0.9-0.1v0.9
			c0,0,0.3-0.1,0.9-0.1c0,0.6-0.1,0.9-0.1,0.9h0.9c0,0-0.1-0.3-0.1-0.9c0.6,0,0.9,0.1,0.9,0.1V9.6z"/>
		<path class="st1" d="M37.5,9.6c0,0-0.3,0.1-0.9,0.1c0-0.5,0.1-0.8,0.1-0.8h-0.9c0,0,0.1,0.3,0.1,0.8c-0.6,0-0.9-0.1-0.9-0.1v0.9
			c0,0,0.3-0.1,0.9-0.1c0,0.6-0.1,0.9-0.1,0.9h0.9c0,0-0.1-0.3-0.1-0.9c0.6,0,0.9,0.1,0.9,0.1V9.6z"/>
		<path class="st2" d="M42.6,16.3h-0.9c0,0-0.1-0.2-0.5-0.2c-0.3,0-0.5,0.2-0.5,0.2l-2.3,0c0,0-0.1-0.2-0.5-0.2
			c-0.4,0-0.5,0.2-0.5,0.2h-1v1.4h5.9V16.3z"/>
		<path class="st0" d="M42.6,17.8h-6v-1.5h1c0,0,0.2-0.2,0.5-0.2s0.5,0.1,0.5,0.2l2.2,0c0,0,0.2-0.2,0.5-0.2c0,0,0,0,0,0
			c0.3,0,0.4,0.1,0.4,0.2h0.9V17.8z M36.7,17.7h5.9v-1.4h-0.8l0,0c0,0-0.1-0.1-0.4-0.1c0,0,0,0,0,0c-0.3,0-0.4,0.2-0.4,0.2l0,0h0
			l-2.3,0l0,0c0,0-0.1-0.1-0.5-0.1s-0.5,0.1-0.5,0.1l0,0h-1V17.7z"/>
		<polygon class="st0" points="41.9,14.1 41.6,14.1 41.6,13.8 40.9,13.8 40.9,14.1 38.4,14.1 38.4,13.8 37.8,13.8 37.8,14.1 
			37.4,14.1 36.2,16.2 43.2,16.2 		"/>
		<rect x="37.5" y="14.4" class="st2" width="4.2" height="0.1"/>
		<rect x="37.6" y="16.7" class="st0" width="0.9" height="1.1"/>
		<rect x="40.8" y="16.7" class="st0" width="0.9" height="1.1"/>
		<g>
			<path class="st0" d="M9.7,27.8c1.5,0,2.3,0.9,2.3,2.4c0,1.4-0.9,2.3-2.4,2.3c-1.5,0-2.4-0.9-2.4-2.4C7.3,28.7,8.2,27.8,9.7,27.8
				 M9.7,32.3c1,0,1.6-0.7,1.6-1.9c0-1.5-0.7-2.4-1.8-2.4c-1,0-1.6,0.7-1.6,1.9C7.9,31.4,8.6,32.3,9.7,32.3"/>
			<path class="st0" d="M16.2,32.2v0.2h-1.9v-0.2l0.6-0.1v-3.8l-0.6-0.1v-0.2h3c0,0.4,0.1,0.7,0.1,1h-0.2c0-0.1-0.1-0.4-0.2-0.7
				h-1.5v1.7h1.3l0.1-0.5h0.2c0,0.2,0,0.4,0,0.7c0,0.2,0,0.4,0,0.6h-0.2l-0.1-0.5h-1.3v1.9L16.2,32.2z"/>
			<polygon class="st0" points="23.5,28.3 22.9,28.2 22.9,27.9 24.8,27.9 24.8,28.2 24.2,28.3 25.4,31.6 26.7,28.3 26,28.2 26,27.9 
				27.6,27.9 27.6,28.2 27.1,28.3 25.4,32.6 25.2,32.6 			"/>
			<path class="st0" d="M28.6,32.2l0.5-0.1l1.7-4.3h0.3l1.8,4.3l0.5,0.1v0.2h-1.8v-0.2l0.7-0.1l-0.6-1.4H30l-0.5,1.4l0.7,0.1v0.2
				h-1.6V32.2z M31.6,30.5l-0.7-1.9l-0.7,1.9H31.6z"/>
			<polygon class="st0" points="35.3,32.2 35.9,32.1 35.9,28.3 35.3,28.2 35.3,27.9 36.5,27.9 39.7,31.6 39.7,28.3 39,28.2 39,27.9 
				40.6,27.9 40.6,28.2 40,28.3 40,32.5 39.7,32.5 36.3,28.6 36.3,32.1 36.9,32.2 36.9,32.5 35.3,32.5 			"/>
			<path class="st0" d="M46.3,31.1l0.2,0c0.1,0.8,0.4,1.2,1.1,1.2c0.6,0,1-0.3,1-0.8c0-0.2-0.1-0.4-0.2-0.5
				c-0.2-0.2-0.6-0.4-1.3-0.7c-0.4-0.2-0.7-0.6-0.7-1.2c0-0.8,0.5-1.3,1.3-1.3c0.2,0,0.6,0,1,0.1c0,0.3,0,0.6,0.1,1l-0.2,0
				c-0.1-0.6-0.5-0.9-0.9-0.9c-0.5,0-0.8,0.3-0.8,0.8c0,0.2,0.1,0.4,0.2,0.6c0.2,0.3,0.7,0.4,1.3,0.7c0.5,0.2,0.7,0.6,0.7,1.1
				c0,0.7-0.6,1.3-1.5,1.3c-0.5,0-1-0.1-1.3-0.4C46.4,31.8,46.4,31.5,46.3,31.1"/>
			<path class="st0" d="M51.1,32.2l0.5-0.1l1.7-4.3h0.3l1.8,4.3l0.5,0.1v0.2h-1.8v-0.2l0.7-0.1l-0.6-1.4h-1.7L52,32.1l0.7,0.1v0.2
				h-1.6V32.2z M54.1,30.5l-0.7-1.9l-0.7,1.9H54.1z"/>
			<path class="st0" d="M59.7,32.2v0.2h-1.9v-0.2l0.6-0.1v-3.8l-0.6-0.1v-0.2h1.9v0.2L59,28.3v1.8h0.3c0.1,0,0.1,0,0.2-0.1l1.2-1.7
				l-0.5-0.1v-0.2h1.6v0.2l-0.6,0.1L59.9,30l1.8,2.1l0.5,0.1v0.2h-1.8v-0.2l0.6-0.1l-1.5-1.7H59v1.7L59.7,32.2z"/>
			<path class="st0" d="M64.1,31.1l0.2,0c0.1,0.8,0.4,1.2,1.1,1.2c0.6,0,1-0.3,1-0.8c0-0.2-0.1-0.4-0.2-0.5
				c-0.2-0.2-0.6-0.4-1.3-0.7c-0.4-0.2-0.7-0.6-0.7-1.2c0-0.8,0.5-1.3,1.3-1.3c0.2,0,0.6,0,1,0.1c0,0.3,0,0.6,0.1,1l-0.2,0
				c-0.1-0.6-0.5-0.9-0.9-0.9c-0.5,0-0.8,0.3-0.8,0.8c0,0.2,0.1,0.4,0.2,0.6c0.2,0.3,0.7,0.4,1.3,0.7c0.5,0.2,0.7,0.6,0.7,1.1
				c0,0.7-0.6,1.3-1.5,1.3c-0.5,0-1-0.1-1.3-0.4C64.1,31.8,64.1,31.5,64.1,31.1"/>
			<path class="st0" d="M69.1,32.2l0.6-0.1v-3.8l-0.6-0.1v-0.2h3c0,0.2,0,0.5,0.1,1H72c0-0.1-0.1-0.3-0.2-0.6h-1.4v1.7h1.2l0.1-0.5
				h0.2c0,0.2,0,0.4,0,0.7c0,0.2,0,0.4,0,0.6h-0.2l-0.1-0.5h-1.2v1.9h1.8c0.2-0.3,0.3-0.6,0.3-0.7h0.2c-0.1,0.4-0.2,0.7-0.3,1.1
				h-3.3V32.2z"/>
			<polygon class="st0" points="74.6,32.2 75.3,32.1 75.3,28.3 74.6,28.2 74.6,27.9 75.8,27.9 79,31.6 79,28.3 78.4,28.2 78.4,27.9 
				80,27.9 80,28.2 79.4,28.3 79.4,32.5 79.1,32.5 75.6,28.6 75.6,32.1 76.3,32.2 76.3,32.5 74.6,32.5 			"/>
			<polygon class="st0" points="3.2,27.9 3.2,28.2 3.8,28.3 3.8,29.9 1.2,29.9 1.2,28.3 1.9,28.2 1.9,27.9 0,27.9 0,28.2 0.6,28.3 
				0.6,32.1 0,32.2 0,32.5 1.9,32.5 1.9,32.2 1.2,32.1 1.2,30.2 3.8,30.2 3.8,32.1 3.2,32.2 3.2,32.5 5,32.5 5,32.2 4.4,32.1 
				4.4,28.3 5,28.2 5,27.9 			"/>
		</g>
	</g>
</g>
</svg>
